<?xml version="1.0" encoding="UTF-8" standalone="no"?>
<svg
   xmlns:dc="http://purl.org/dc/elements/1.1/"
   xmlns:cc="http://creativecommons.org/ns#"
   xmlns:rdf="http://www.w3.org/1999/02/22-rdf-syntax-ns#"
   xmlns:svg="http://www.w3.org/2000/svg"
   xmlns="http://www.w3.org/2000/svg"
   xmlns:sodipodi="http://sodipodi.sourceforge.net/DTD/sodipodi-0.dtd"
   xmlns:inkscape="http://www.inkscape.org/namespaces/inkscape"
   width="512"
   height="512"
   viewBox="0 0 135.46666 135.46667"
   version="1.1"
   id="svg8"
   sodipodi:docname="WaterpumpWrench.svg"
   inkscape:version="1.0.1 (3bc2e813f5, 2020-09-07)"
   inkscape:export-filename="/home/farschad/Qt-Projekte/FSHKQuiz/FSHKQuestMaker/FSHKQuestMaker/WaterpumpWrench.png"
   inkscape:export-xdpi="96"
   inkscape:export-ydpi="96">
  <defs
     id="defs2" />
  <sodipodi:namedview
     id="base"
     pagecolor="#ffffff"
     bordercolor="#666666"
     borderopacity="1.0"
     inkscape:pageopacity="0.0"
     inkscape:pageshadow="2"
     inkscape:zoom="1.4142136"
     inkscape:cx="254.65312"
     inkscape:cy="303.6108"
     inkscape:document-units="mm"
     inkscape:current-layer="layer1"
     inkscape:document-rotation="0"
     showgrid="false"
     units="px"
     inkscape:window-width="1920"
     inkscape:window-height="1008"
     inkscape:window-x="0"
     inkscape:window-y="0"
     inkscape:window-maximized="1" />
  <metadata
     id="metadata5">
    <rdf:RDF>
      <cc:Work
         rdf:about="">
        <dc:format>image/svg+xml</dc:format>
        <dc:type
           rdf:resource="http://purl.org/dc/dcmitype/StillImage" />
        <dc:title />
      </cc:Work>
    </rdf:RDF>
  </metadata>
  <g
     inkscape:label="Ebene 1"
     inkscape:groupmode="layer"
     id="layer1">
    <path
       id="path847"
       style="fill:none;stroke:#000000;stroke-width:0.999999px;stroke-linecap:butt;stroke-linejoin:miter;stroke-opacity:1;fill-opacity:1"
       d="m 143.67383,75 -24.64258,0.714844 -30,15 -32.142578,24.999996 0.236328,10.28125 16.484375,-1.92968 11.341797,-10.73243 17.939448,3.61329 11.94532,-3.61524 14.0664,-0.68555 2.8086,3.6543 -1.65625,0.68555 -26.44141,4.98047 -16.287108,12.16601 -13.59375,-3.8457 -14.703125,5.98047 2.710937,8.02148 18.363282,5.45703 38.394534,5.83985 9.49609,-0.35352 13.27539,-3.19922 3.76953,18.10938 3.83008,15.41797 8.36133,16.75586 59.8125,65.48632 -0.48242,3.48047 12.34765,16.89258 L 371.95117,437.25 c 10.69891,7.90348 22.57892,7.98539 28.13383,2.98481 5.55491,-5.00058 2.10319,-17.70033 -0.37696,-23.21679 L 251.82227,265.85742 236.80664,250.125 l -2.06055,0.58984 -12.5,-16.78711 -11.78515,-21.42773 -15.35742,-46.07227 -6.07227,-17.83789 2.51953,0.28711 9.24414,4.67383 8.89063,4.67578 70.48437,46.58203 -0.89453,2.19532 15.7793,13.03125 157.50976,145.4414 c 11.76969,3.8741 18.37666,3.91375 23.33587,-2.1597 4.62401,-5.59534 0.17869,-22.47088 -5.08977,-28.27194 L 317.10156,197.90234 298.88477,184.375 l -2.62891,2.46094 -92.08008,-68.17969 -19.8418,-16.85937 -4.44921,-2.531255 -5.69922,-0.550781 -1.86914,0.773437 -0.0703,-0.203125 -7.5,-12.5 z"
       transform="scale(0.26458333)"
       sodipodi:nodetypes="cccccccccccccccccccccccccccczcccccccccccccccccccccccccccc" />
    <path
       style="fill:none;stroke:#000000;stroke-width:0.264583px;stroke-linecap:butt;stroke-linejoin:miter;stroke-opacity:1"
       d="m 44.532139,30.102963 4.876253,18.142045 c 0,0 0.125566,2.723844 -2.947637,4.195265 -3.195756,1.530098 -5.303383,-1.625798 -5.303383,-1.625798 l -4.691736,-18.37794 c 0,0 0.06555,-3.25739 2.807842,-4.146959 3.649078,-1.18372 5.258661,1.813387 5.258661,1.813387 z"
       id="path891"
       sodipodi:nodetypes="ccsccsc" />
    <path
       style="fill:none;stroke:#000000;stroke-width:0.264583px;stroke-linecap:butt;stroke-linejoin:miter;stroke-opacity:1"
       d="m 15.051794,30.616218 7.921812,-4.672582 7.199943,2.070989 0.210126,1.971141"
       id="path893" />
    <path
       style="fill:none;stroke:#000000;stroke-width:0.264583px;stroke-linecap:butt;stroke-linejoin:miter;stroke-opacity:1"
       d="m 16.335436,38.17648 8.832041,0.840782 5.828295,-5.38891 -0.41859,-1.979909"
       id="path895" />
    <path
       id="path897"
       style="opacity:1;fill:none;fill-opacity:1;stroke:#000000;stroke-width:1.44618;stroke-linecap:round;stroke-linejoin:round;stroke-miterlimit:4;stroke-dasharray:none;stroke-opacity:1"
       d="M 153.49414 111.46094 A 8.7257235 8.7257099 0 0 0 144.8457 119.9668 L 144.84375 120.19336 A 8.7257235 8.7257099 0 0 0 147.59961 126.54883 A 8.7257235 8.7257099 0 0 0 147.0332 129.42773 L 147.0293 129.6543 A 8.7257235 8.7257099 0 0 0 149.91211 136.125 A 8.7257235 8.7257099 0 0 0 149.26172 139.21484 L 149.25781 139.44141 A 8.7257235 8.7257099 0 0 0 153.14648 146.69531 A 8.7257235 8.7257099 0 0 0 152.29883 150.23242 L 152.29688 150.45703 A 8.7257235 8.7257099 0 0 0 156.13281 157.67773 A 8.7257235 8.7257099 0 0 0 154.98828 161.78125 L 154.98633 162.00781 A 8.7257235 8.7257099 0 0 0 158.73438 169.16797 A 8.7257235 8.7257099 0 0 0 158.2793 171.73438 L 158.27734 171.96094 A 8.7257235 8.7257099 0 0 0 161.39062 178.63281 A 8.7257235 8.7257099 0 0 0 160.51562 182.22852 L 160.51367 182.45508 A 8.7257235 8.7257099 0 0 0 169.19141 191.17188 A 8.7257235 8.7257099 0 0 0 177.96484 182.55273 A 8.7257235 8.7257099 0 0 0 174.85156 175.76562 A 8.7257235 8.7257099 0 0 0 175.72852 172.05664 A 8.7257235 8.7257099 0 0 0 171.98047 164.78711 A 8.7257235 8.7257099 0 0 0 172.4375 162.10547 A 8.7257235 8.7257099 0 0 0 168.59961 154.77148 A 8.7257235 8.7257099 0 0 0 169.74805 150.55469 A 8.7257235 8.7257099 0 0 0 165.86133 143.18945 A 8.7257235 8.7257099 0 0 0 166.70898 139.53906 A 8.7257235 8.7257099 0 0 0 163.82812 132.95508 A 8.7257235 8.7257099 0 0 0 164.48047 129.75195 A 8.7257235 8.7257099 0 0 0 161.72656 123.28516 A 8.7257235 8.7257099 0 0 0 162.29492 120.29102 A 8.7257235 8.7257099 0 0 0 153.73047 111.46094 A 8.7257235 8.7257099 0 0 0 153.49414 111.46094 z "
       transform="scale(0.26458333)" />
  </g>
</svg>
